<svg width="100" height="100" viewBox="0 0 100 100" xmlns="http://www.w3.org/2000/svg" xmlns:xlink="http://www.w3.org/1999/xlink">
    <path id="Path" fill="#c4c4c4" stroke="none" d="M 50 6 C 25.723124 6 6 25.723122 6 50 C 6 72.038269 22.255066 90.276711 43.425781 93.457031 L 45.722656 93.804688 L 45.722656 59.132813 L 35.328125 59.132813 L 35.328125 52.09375 L 45.722656 52.09375 L 45.722656 42.746094 C 45.722656 36.989929 47.103947 33.198837 49.390625 30.820313 C 51.677303 28.441788 55.056007 27.242188 59.757813 27.242188 C 63.517429 27.242188 64.980042 27.469986 66.371094 27.640625 L 66.371094 33.402344 L 61.476563 33.402344 C 58.699394 33.402344 56.420898 34.951805 55.238281 37.015625 C 54.055664 39.079449 53.6875 41.543633 53.6875 44.054688 L 53.6875 52.089844 L 65.933594 52.089844 L 64.84375 59.128906 L 53.6875 59.128906 L 53.6875 93.859375 L 55.957031 93.550781 C 77.42868 90.638733 94 72.253693 94 50 C 94 25.723122 74.276878 6 50 6 Z M 50 10 C 72.115128 10 90 27.884872 90 50 C 90 69.459579 76.071594 85.463593 57.6875 89.066406 L 57.6875 63.128906 L 68.273438 63.128906 L 70.597656 48.089844 L 57.6875 48.089844 L 57.6875 44.054688 C 57.6875 41.97974 58.067146 40.120586 58.707031 39.003906 C 59.346912 37.887226 59.96373 37.402344 61.476563 37.402344 L 70.371094 37.402344 L 70.371094 24.019531 L 68.636719 23.785156 C 67.437134 23.622833 64.698395 23.242188 59.757813 23.242188 C 54.351616 23.242188 49.711136 24.714897 46.507813 28.046875 C 43.304493 31.378853 41.722656 36.340256 41.722656 42.746094 L 41.722656 48.09375 L 31.328123 48.09375 L 31.328123 63.132813 L 41.722656 63.132813 L 41.722656 88.941406 C 23.633989 85.109627 10 69.248894 10 50 C 10 27.884872 27.884876 10 50 10 Z"/>
</svg>
