<svg width="100" height="100" viewBox="0 0 100 100" xmlns="http://www.w3.org/2000/svg" xmlns:xlink="http://www.w3.org/1999/xlink">
    <path id="Path" fill="#c4c4c4" stroke="none" d="M 50 4 C 24.622669 4 4 24.622665 4 50 C 4 75.377327 24.622669 96 50 96 C 75.377327 96 96 75.377327 96 50 C 96 24.622665 75.377327 4 50 4 Z M 50 8 C 73.214668 8 92 26.785332 92 50 C 92 50.142742 91.9897 50.283375 91.988281 50.425781 C 90.709053 50.307705 89.231018 50.195553 87.351563 50.128906 C 84.694122 50.034672 81.344521 50.061974 77.546875 50.25 C 77.687706 49.269302 77.786407 48.274754 77.789063 47.253906 C 77.982719 43.508663 76.725044 40.004929 74.679688 36.910156 C 75.173828 35.202705 75.753494 33.030441 75.898438 30.566406 C 76.063637 27.757851 75.821198 24.643532 73.566406 22.539063 L 72.988281 22 L 72.199219 22 C 66.833076 22 63.160046 24.246422 60.914063 26.027344 C 57.671059 24.772041 54.024441 24 50 24 C 45.952736 24 42.271049 24.782829 38.894531 26.035156 C 36.649822 24.25338 32.973572 22 27.601563 22 L 26.816406 22 L 26.238281 22.535156 C 24.041912 24.574646 23.839556 27.603516 23.976563 30.398438 C 24.097382 32.863007 24.643463 35.104279 25.128906 36.894531 C 23.048979 40.049721 21.800781 43.644035 21.800781 47.199219 C 21.800781 48.222473 21.895939 49.220142 22.035156 50.203125 C 18.423635 50.035618 15.204199 50.003338 12.648438 50.09375 C 10.769029 50.160236 9.290884 50.271427 8.011719 50.390625 C 8.010526 50.259945 8 50.130962 8 50 C 8 26.785332 26.78533 8 50 8 Z M 28.792969 26.261719 C 32.828133 26.644089 35.863991 28.445946 37.269531 29.695313 L 38.207031 30.523438 L 39.363281 30.050781 C 42.526184 28.748413 46.053967 28 50 28 C 53.946033 28 57.474785 28.752151 60.398438 30.03125 L 61.570313 30.546875 L 62.527344 29.695313 C 63.933365 28.445518 66.974365 26.643112 71.011719 26.261719 C 71.548515 27.15168 72.014969 28.417336 71.902344 30.332031 C 71.767548 32.623474 71.15461 35.119316 70.691406 36.601563 L 70.390625 37.566406 L 70.988281 38.382813 C 72.967232 41.081383 73.976242 44.001873 73.804688 47.089844 L 73.800781 47.144531 L 73.800781 47.199219 C 73.800781 52.190128 72.003563 56.184677 68.175781 59.144531 C 64.348099 62.104397 58.305325 64 49.800781 64 C 41.296234 64 35.249653 62.104385 31.421877 59.144531 C 27.594093 56.184677 25.800781 52.190128 25.800781 47.199219 C 25.800781 44.269806 26.858616 41.047199 28.8125 38.382813 L 29.398438 37.585938 L 29.117188 36.636719 C 28.653732 35.060966 28.085649 32.508209 27.972656 30.203125 C 27.878675 28.285881 28.332441 27.074051 28.792969 26.261719 Z M 17.769531 52.042969 C 19.182915 52.06102 20.802919 52.137314 22.425781 52.21875 C 22.580837 52.842342 22.757645 53.455795 22.972656 54.054688 C 16.357944 54.194183 11.409462 54.859348 8.359375 55.429688 C 8.230413 54.428989 8.127697 53.42004 8.070313 52.398438 C 10.324411 52.184525 13.501994 51.988464 17.769531 52.042969 Z M 82.230469 52.074219 C 86.495056 52.020065 89.671455 52.216312 91.925781 52.429688 C 91.868469 53.436657 91.767494 54.431328 91.640625 55.417969 C 88.481537 54.838421 83.399345 54.173374 76.613281 54.066406 C 76.823891 53.479355 76.999252 52.876438 77.152344 52.265625 C 78.942581 52.169666 80.689125 52.093792 82.230469 52.074219 Z M 23.824219 56.039063 C 25.017698 58.430653 26.723032 60.566036 28.976563 62.308594 C 32.057652 64.691063 36.063248 66.355675 40.953125 67.246094 C 40.313396 67.903397 39.73156 68.625191 39.214844 69.386719 L 39.09375 69.28125 C 39.104752 69.268646 38.099499 69.771759 36.597656 69.90625 C 35.095814 70.040749 33.243229 70 31.601563 70 C 29.151562 70 28.07242 68.842422 26.347656 66.734375 C 25.392567 65.447121 24.228203 64.404663 23.097656 63.613281 C 21.940042 62.802952 20.952518 62.231018 19.730469 62.027344 L 19.566406 62 L 19.398438 62 C 18.465105 62 17.561968 62.067581 16.71875 63.03125 C 16.297142 63.513088 16.006554 64.405121 16.195313 65.160156 C 16.384071 65.915192 16.861713 66.379166 17.289063 66.664063 C 20.022509 68.486359 20.50559 72.093025 22.21875 75.300781 C 23.818596 78.488632 27.271324 80 30.800781 80 L 36 80 L 36 89.605469 C 21.935621 84.641068 11.329359 72.409225 8.664063 57.40625 C 11.725867 56.829552 16.853077 56.136215 23.824219 56.039063 Z M 75.765625 56.054688 C 82.891075 56.115681 88.162102 56.808121 91.339844 57.394531 C 88.678093 72.403008 78.068146 84.63974 64 89.605469 L 64 79.199219 C 64 76.030083 62.959286 72.535423 61.148438 69.621094 C 60.598644 68.736267 59.951889 67.899475 59.230469 67.148438 C 63.860905 66.233681 67.664726 64.597641 70.625 62.308594 C 72.87365 60.569813 74.575172 58.440849 75.765625 56.054688 Z M 47.398438 68.199219 L 53 68.199219 C 54.625641 68.199219 56.360847 69.494797 57.75 71.730469 C 59.139153 73.966141 60 76.968353 60 79.199219 L 60 90.796875 C 56.794815 91.578468 53.447578 92 50 92 C 46.552422 92 43.205185 91.578468 40 90.796875 L 40 79.199219 C 40 77.017738 40.935658 74.022614 42.417969 71.777344 C 43.900284 69.532074 45.772797 68.199219 47.398438 68.199219 Z M 24.617188 70.5625 C 26.348736 72.358513 28.445049 74 31.601563 74 C 33.159897 74 35.104969 74.056145 36.953125 73.890625 C 36.959698 73.890038 36.966084 73.887306 36.972656 73.886719 C 36.72916 74.586723 36.547489 75.291061 36.394531 76 L 30.800781 76 C 28.334114 76 26.591539 75.108856 25.789063 73.503906 L 25.773438 73.476563 L 25.761719 73.453125 C 25.432915 72.842384 25.001289 71.621178 24.617188 70.5625 Z"/>
</svg>
