<svg width="100" height="100" viewBox="0 0 100 100" xmlns="http://www.w3.org/2000/svg" xmlns:xlink="http://www.w3.org/1999/xlink">
    <path id="Path" fill="#c4c4c4" stroke="none" d="M 32 6 C 17.664968 6 6 17.66497 6 32 L 6 68 C 6 82.33503 17.664968 94 32 94 L 68 94 C 82.33503 94 94 82.33503 94 68 L 94 32 C 94 17.66497 82.33503 6 68 6 L 32 6 Z M 32 10 L 68 10 C 80.172966 10 90 19.827034 90 32 L 90 68 C 90 80.172966 80.172966 90 68 90 L 32 90 C 19.827032 90 10 80.172966 10 68 L 10 32 C 10 19.827034 19.827032 10 32 10 Z M 74 22 C 71.790863 22 70 23.790863 70 26 C 70 28.209137 71.790863 30 74 30 C 76.209137 30 78 28.209137 78 26 C 78 23.790863 76.209137 22 74 22 Z M 50 28 C 37.873425 28 28 37.873425 28 50 C 28 62.126575 37.873425 72 50 72 C 62.126575 72 72 62.126575 72 50 C 72 37.873425 62.126575 28 50 28 Z M 50 32 C 59.964813 32 68 40.035187 68 50 C 68 59.964813 59.964813 68 50 68 C 40.035187 68 32 59.964813 32 50 C 32 40.035187 40.035187 32 50 32 Z"/>
</svg>
