<svg width="100" height="100" viewBox="0 0 100 100" xmlns="http://www.w3.org/2000/svg" xmlns:xlink="http://www.w3.org/1999/xlink">
    <path id="Path" fill="#c09e72" stroke="none" d="M 50 4 C 24.618589 4 4 24.618591 4 50 C 4 75.381409 24.618589 96 50 96 C 75.381409 96 96 75.381409 96 50 C 96 24.618591 75.381409 4 50 4 Z M 50 8 C 73.21965 8 92 26.78035 92 50 C 92 73.21965 73.21965 92 50 92 C 26.780352 92 8 73.21965 8 50 C 8 26.78035 26.780352 8 50 8 Z M 30.003906 36 L 21.933594 36.003906 C 21.933594 36.003906 21.471794 35.977882 20.914063 36.050781 C 20.356331 36.12368 19.532389 36.15752 18.6875 37.113281 L 18.683594 37.117188 L 18.679688 37.121094 C 17.92816 37.980534 17.956835 38.980827 18.050781 39.53125 C 18.144381 40.079647 18.353924 40.489159 18.355469 40.492188 L 18.355469 40.496094 C 18.43306 40.686455 24.292759 55.043858 31.679688 62.757813 C 36.890198 68.202568 42.462807 70 47.425781 70 L 50 70 C 50.84692 70 51.60331 69.961456 52.441406 69.527344 C 53.279507 69.093224 54 67.895142 54 66.964844 C 54 65.962494 54.024624 64.990807 54.152344 64.449219 C 54.271637 63.943443 54.225605 64.067581 54.273438 64.066406 C 54.321384 64.076813 54.408657 64.097023 54.574219 64.171875 C 54.931004 64.333176 55.482292 64.693268 56.09375 65.167969 C 57.314754 66.115891 58.761009 67.491112 60.382813 68.554688 C 62.705711 70.094238 65.226563 70 65.226563 70 L 73.539063 70 L 73.628906 69.992188 C 73.628906 69.992188 74.904419 69.963188 76.214844 69.160156 C 76.870056 68.758636 77.64872 68.022064 77.910156 66.917969 C 78.171593 65.813873 77.837776 64.655495 77.195313 63.636719 C 76.960609 63.263046 75.821259 61.611759 71.273438 57.574219 C 70.098511 56.532181 69.297279 55.794556 68.980469 55.402344 C 68.867989 55.263096 68.858559 55.276539 68.835938 55.269531 C 68.862434 55.201145 69.125198 54.64782 69.828125 53.734375 C 70.56073 52.782364 71.673996 51.455887 73.105469 49.632813 C 74.929955 47.308426 76.210068 45.073406 77.015625 43.1875 C 77.418404 42.244549 77.703918 41.388908 77.875 40.613281 C 78.046082 39.83765 78.182594 39.19294 77.929688 38.273438 C 77.741051 37.588966 77.228745 36.975937 76.726563 36.652344 C 76.22438 36.328751 75.756187 36.206863 75.335938 36.128906 C 74.495445 35.972984 73.753868 36 73.0625 36 C 71.614883 36 65.179619 36.050781 64.648438 36.050781 C 64.025017 36.050781 63.030514 36.310398 62.570313 36.574219 C 61.42778 37.228531 61.070313 38.125 61.070313 38.125 L 60.960938 38.316406 L 60.898438 38.53125 C 60.898438 38.53125 59.433064 43.271652 57.925781 45.714844 L 57.921875 45.714844 C 56.14949 48.593067 54.827419 49.734745 54.246094 50.058594 C 54.184345 50.092995 54.218555 50.074718 54.175781 50.097656 C 54.130314 49.965229 54.072941 49.782894 54.035156 49.445313 C 53.950134 48.684853 54 47.613934 54 46.578125 C 54 43.709293 54.21545 41.920368 53.976563 40.226563 C 53.857117 39.379662 53.553032 38.43652 52.859375 37.710938 C 52.165714 36.985355 51.269726 36.628201 50.375 36.421875 L 50.371094 36.421875 C 49.438625 36.207142 48.433743 36.022717 46.019531 36 C 42.943531 35.971321 40.940231 36.066681 39.160156 36.859375 L 39.140625 36.871094 L 39.125 36.878906 C 38.421658 37.209286 37.867203 37.587982 37.378906 38.09375 C 37.134758 38.346634 36.845112 38.530788 36.644531 39.335938 C 36.544231 39.73851 36.533234 40.500183 36.988281 41.117188 C 37.443325 41.734196 38.081032 41.920288 38.457031 41.96875 C 38.387672 41.959751 38.752838 42.040112 39.035156 42.179688 C 39.317474 42.319267 39.562603 42.520241 39.625 42.601563 L 39.625 42.605469 C 39.5989 42.571568 39.870007 43.245285 39.941406 43.859375 C 40.012806 44.473465 40 44.96875 40 44.96875 L 39.996094 45.089844 L 40.007813 45.210938 C 40.007813 45.210938 40.130585 46.569855 40.066406 47.972656 C 40.034306 48.674057 39.945648 49.380032 39.828125 49.8125 C 39.821911 49.835373 39.819069 49.827354 39.8125 49.847656 C 39.311752 49.497936 38.157108 48.279381 36.566406 45.652344 C 35.095947 43.222218 33.71875 38.851563 33.71875 38.851563 L 33.6875 38.753906 L 33.652344 38.660156 C 33.652344 38.660156 33.395576 37.683792 32.261719 36.886719 C 31.198959 36.138569 30.1875 36.035156 30.1875 36.035156 L 30.003906 36 Z M 29.539063 40 C 29.653461 40.041821 29.892622 40.127998 29.9375 40.148438 L 29.890623 40.007813 C 29.890623 40.007813 29.952206 40.149204 29.953123 40.152344 C 29.953632 40.152615 29.960737 40.156052 29.960938 40.15625 L 29.960938 40.160156 L 29.964844 40.160156 C 29.864325 40.089836 29.949537 40.159637 29.960938 40.175781 C 30.016178 40.364243 31.237387 44.570847 33.144531 47.722656 C 34.881886 50.591892 36.16544 52.199326 37.566406 53.160156 C 38.966019 54.120056 40.848057 54.02113 41.804688 53.523438 C 43.083157 52.859497 43.440517 51.76828 43.6875 50.859375 C 43.934483 49.950466 44.022594 49.028351 44.0625 48.15625 C 44.138641 46.492275 44.008415 45.131069 43.996094 44.996094 C 43.998093 44.920914 44.015903 44.270805 43.914063 43.394531 C 43.811401 42.511578 43.627392 41.414303 42.84375 40.3125 C 43.721527 40.182079 44.208862 39.983486 45.980469 40 C 48.23975 40.021259 48.583424 40.11552 49.472656 40.320313 C 49.956928 40.431992 50.010689 40.524509 49.964844 40.476563 C 49.919003 40.4286 49.960846 40.396561 50.015625 40.785156 C 50.125259 41.562164 50 43.554958 50 46.578125 C 50 47.430317 49.917713 48.632092 50.058594 49.890625 C 50.199375 51.148373 50.592476 52.757683 52.113281 53.699219 C 52.979801 54.2355 54.635139 54.419937 56.195313 53.550781 C 57.755486 52.681629 59.356506 51.014275 61.328125 47.8125 C 63.275703 44.655628 64.440384 40.505119 64.566406 40.066406 C 64.566406 40.066406 64.588623 40.051956 64.601563 40.042969 C 64.636902 40.044666 64.591942 40.050781 64.648438 40.050781 C 65.389259 40.050781 71.710121 40 73.0625 40 C 73.43457 40 73.597916 40.020031 73.875 40.03125 C 73.763023 40.463058 73.612473 40.965885 73.335938 41.613281 C 72.685997 43.134876 71.570549 45.108452 69.957031 47.164063 C 68.566505 48.934986 67.486237 50.219482 66.660156 51.292969 C 65.834076 52.366455 65.185127 53.213184 64.914063 54.4375 C 64.642998 55.661816 65.160179 57.042683 65.867188 57.917969 C 66.574196 58.793255 67.449112 59.530445 68.617188 60.566406 C 73.017365 64.472862 73.739296 65.655296 73.808594 65.765625 L 73.808594 65.769531 C 73.882896 65.887352 73.834724 65.76886 73.863281 65.828125 C 73.613777 65.905907 73.316818 65.993858 73.289063 66 L 65.195313 66 L 65.183594 66 C 65.183594 66 63.694954 65.951202 62.589844 65.21875 L 62.585938 65.214844 L 62.582031 65.214844 C 61.412926 64.449112 59.999962 63.135906 58.546875 62.007813 C 57.820332 61.443764 57.080624 60.91523 56.222656 60.527344 C 55.364689 60.139458 54.277302 59.864464 53.132813 60.207031 C 51.476299 60.702831 50.556984 62.279339 50.261719 63.53125 C 50.049763 64.429939 50.081097 65.211449 50.074219 65.996094 C 50.017162 65.9991 50.066547 66 50 66 L 47.425781 66 C 43.360752 66 39.13179 64.759056 34.570313 59.992188 C 28.639963 53.799297 23.348927 41.823208 22.554688 40.003906 L 29.539063 40 Z M 64.425781 40.015625 C 64.389481 40.023712 64.493332 40.031555 64.578125 40.039063 C 64.56665 40.04528 64.579102 40.033558 64.5625 40.042969 C 64.560822 40.009548 64.474571 40.004753 64.425781 40.015625 Z"/>
</svg>
